<?xml version="1.0" encoding="utf-8"?><!DOCTYPE svg PUBLIC "-//W3C//DTD SVG 1.1//EN" "http://www.w3.org/Graphics/SVG/1.1/DTD/svg11.dtd"><svg xmlns="http://www.w3.org/2000/svg" viewBox="0 0 41 41" shape-rendering="crispEdges"><path fill="#ffffff" d="M0 0h41v41H0z"/><path stroke="#000000" d="M2 2.5h7m1 0h1m2 0h2m6 0h1m1 0h2m1 0h1m1 0h1m3 0h7M2 3.5h1m5 0h1m1 0h1m2 0h4m3 0h1m4 0h1m1 0h2m1 0h1m1 0h1m5 0h1M2 4.5h1m1 0h3m1 0h1m2 0h2m3 0h3m1 0h1m1 0h2m1 0h1m4 0h1m1 0h1m1 0h3m1 0h1M2 5.5h1m1 0h3m1 0h1m1 0h1m1 0h1m1 0h5m2 0h1m3 0h2m1 0h1m1 0h1m1 0h1m1 0h3m1 0h1M2 6.5h1m1 0h3m1 0h1m1 0h1m2 0h1m3 0h2m3 0h1m5 0h2m2 0h1m1 0h3m1 0h1M2 7.5h1m5 0h1m1 0h2m2 0h1m3 0h2m3 0h2m1 0h4m2 0h1m5 0h1M2 8.5h7m1 0h1m1 0h1m1 0h1m1 0h1m1 0h1m1 0h1m1 0h1m1 0h1m1 0h1m1 0h1m1 0h1m1 0h7M11 9.5h4m3 0h1m2 0h1m1 0h3m2 0h1M5 10.5h1m2 0h1m4 0h3m1 0h2m1 0h2m2 0h2m7 0h3m1 0h2M2 11.5h1m2 0h3m2 0h3m3 0h1m5 0h2m3 0h1m4 0h2m1 0h1m1 0h1M2 12.5h1m1 0h1m2 0h4m1 0h1m1 0h2m3 0h6m1 0h3m2 0h2m1 0h3M2 13.5h4m5 0h1m1 0h2m1 0h1m5 0h1m1 0h5m3 0h3m2 0h1M3 14.5h1m2 0h1m1 0h3m2 0h2m1 0h1m1 0h3m2 0h3m1 0h1m2 0h1m1 0h1M4 15.5h2m1 0h1m1 0h3m2 0h4m1 0h3m1 0h2m2 0h1m4 0h1m1 0h3M2 16.5h3m2 0h5m5 0h2m3 0h1m5 0h1m4 0h2m1 0h3M4 17.5h4m1 0h3m1 0h2m1 0h1m2 0h2m1 0h1m1 0h4m1 0h2m2 0h1m3 0h1M3 18.5h4m1 0h1m1 0h1m1 0h1m1 0h2m1 0h4m1 0h1m2 0h3m1 0h2m1 0h5m1 0h1M2 19.5h1m1 0h4m5 0h5m1 0h1m4 0h1m2 0h4m3 0h1m1 0h3M3 20.5h1m1 0h1m1 0h2m2 0h1m2 0h1m1 0h2m1 0h1m3 0h2m3 0h8m2 0h1M2 21.5h1m1 0h1m6 0h1m1 0h3m3 0h3m2 0h3m1 0h5m1 0h1m1 0h3M3 22.5h1m2 0h4m3 0h1m1 0h1m1 0h1m1 0h1m1 0h2m3 0h2m1 0h2m3 0h4M5 23.5h1m1 0h1m4 0h4m1 0h3m4 0h1m3 0h1m1 0h3m4 0h2M2 24.5h1m2 0h4m1 0h3m1 0h4m1 0h1m1 0h1m9 0h2m4 0h2M2 25.5h3m1 0h1m3 0h3m2 0h1m1 0h1m2 0h1m1 0h5m1 0h1m2 0h5m1 0h1M7 26.5h2m1 0h3m1 0h2m1 0h1m2 0h2m1 0h2m1 0h1m4 0h2m3 0h1m1 0h1M3 27.5h1m1 0h3m3 0h2m1 0h1m1 0h3m1 0h3m1 0h3m3 0h4m2 0h1M2 28.5h1m2 0h2m1 0h3m3 0h1m3 0h2m1 0h4m1 0h2m2 0h2M3 29.5h2m1 0h2m1 0h2m1 0h1m2 0h2m1 0h1m3 0h2m2 0h2m1 0h3m1 0h3m1 0h1M2 30.5h4m1 0h5m5 0h1m1 0h3m2 0h2m4 0h7M10 31.5h1m1 0h1m1 0h3m1 0h2m3 0h1m1 0h1m2 0h3m3 0h4M2 32.5h7m2 0h1m3 0h1m1 0h1m3 0h1m1 0h1m2 0h1m3 0h1m1 0h1m1 0h1m1 0h1m1 0h1M2 33.5h1m5 0h1m3 0h3m2 0h1m1 0h1m2 0h1m1 0h2m1 0h1m1 0h2m3 0h4M2 34.5h1m1 0h3m1 0h1m2 0h1m1 0h2m1 0h1m2 0h1m1 0h2m1 0h2m4 0h6m2 0h1M2 35.5h1m1 0h3m1 0h1m1 0h1m1 0h4m1 0h1m1 0h1m1 0h2m1 0h2m1 0h3m4 0h2m1 0h1M2 36.5h1m1 0h3m1 0h1m3 0h1m1 0h1m9 0h1m4 0h1m4 0h3m1 0h1M2 37.5h1m5 0h1m4 0h2m1 0h2m1 0h3m1 0h1m3 0h2m4 0h1m1 0h2M2 38.5h7m2 0h1m1 0h2m2 0h2m1 0h1m1 0h2m3 0h2m2 0h4m2 0h2"/></svg>
